<?xml version="1.0" encoding="utf-8"?>
<!-- Generator: Adobe Illustrator 16.0.0, SVG Export Plug-In . SVG Version: 6.00 Build 0)  -->
<!DOCTYPE svg PUBLIC "-//W3C//DTD SVG 1.1//EN" "http://www.w3.org/Graphics/SVG/1.1/DTD/svg11.dtd">
<svg version="1.1" id="Layer_1" xmlns="http://www.w3.org/2000/svg" xmlns:xlink="http://www.w3.org/1999/xlink" x="0px" y="0px"
	 width="520px" height="520px" viewBox="0 0 520 520" enable-background="new 0 0 520 520" xml:space="preserve">
<linearGradient id="SVGID_1_" gradientUnits="userSpaceOnUse" x1="92.2422" y1="92.2432" x2="427.7567" y2="427.7577">
	<stop  offset="0" style="stop-color:#FF3F61"/>
	<stop  offset="1" style="stop-color:#FFC03E"/>
</linearGradient>
<circle fill-rule="evenodd" clip-rule="evenodd" fill="url(#SVGID_1_)" cx="260" cy="260" r="237.245"/>
<path fill-rule="evenodd" clip-rule="evenodd" fill="#FFFFFF" d="M292.001,228.917c23.5,0,46.303-0.01,69.105,0.006
	c7.664,0.006,15.328,0.068,22.992,0.126c14.83,0.11,27.719,12.091,28.934,26.878c1.555,18.938-10.195,33.409-29.119,34.206
	c-23.785,1-47.615,0.957-71.426,1.311c-6.633,0.1-13.27,0.016-20.434,0.016c0,2.67,0.02,4.631-0.002,6.592
	c-0.305,29.15-0.441,58.303-1,87.449c-0.262,13.596-14.529,27.258-28.027,27.643c-20.356,0.582-33.847-12.635-33.993-33.01
	c-0.202-28.154-0.585-56.311-0.903-84.467c-0.013-1.131-0.152-2.26-0.271-3.943c-2.175,0-4.12,0.01-6.064-0.002
	c-28.158-0.158-56.317-0.27-84.475-0.498c-14.056-0.113-28.614-12.574-30.213-25.641c-2.037-16.647,7.444-32.375,22.472-35.876
	c6.23-1.451,12.899-1.321,19.372-1.367c24.659-0.174,49.319-0.125,73.979-0.159c1.814-0.003,3.628-0.001,6.142-0.001
	c0-2.038-0.016-3.798,0.002-5.558c0.302-29.985,0.675-59.97,0.85-89.956c0.031-5.34,1.918-9.646,5.256-13.568
	c11.441-13.449,32.601-16.404,44.718-5.997c6.818,5.855,11.049,13.342,11.18,22.504c0.416,28.815,0.633,57.635,0.924,86.452
	C292.017,223.862,292.001,225.671,292.001,228.917z"/>
</svg>
