<?xml version="1.0" encoding="utf-8"?>
<!-- Generator: Adobe Illustrator 16.0.0, SVG Export Plug-In . SVG Version: 6.00 Build 0)  -->
<!DOCTYPE svg PUBLIC "-//W3C//DTD SVG 1.1//EN" "http://www.w3.org/Graphics/SVG/1.1/DTD/svg11.dtd">
<svg version="1.1" id="Layer_1" xmlns="http://www.w3.org/2000/svg" xmlns:xlink="http://www.w3.org/1999/xlink" x="0px" y="0px"
	 width="520px" height="520px" viewBox="0 0 520 520" enable-background="new 0 0 520 520" xml:space="preserve">
<linearGradient id="SVGID_1_" gradientUnits="userSpaceOnUse" x1="92.2427" y1="92.2427" x2="427.7572" y2="427.7572">
	<stop  offset="0" style="stop-color:#DA1C5C"/>
	<stop  offset="1" style="stop-color:#EF4136"/>
</linearGradient>
<circle fill-rule="evenodd" clip-rule="evenodd" fill="url(#SVGID_1_)" cx="260" cy="259.999" r="237.244"/>
<path fill-rule="evenodd" clip-rule="evenodd" fill="#FFFFFF" d="M413.032,255.643c-1.215-14.905-14.104-26.981-28.934-27.093
	c-7.664-0.058-15.328-0.121-22.992-0.127c-15.072-0.01-30.149-0.01-45.423-0.008v-0.211h-86.615l0-0.025
	c-2.515,0-4.327-0.002-6.142,0.001c-10.933,0.015-21.866,0.015-32.799,0.024h-4.461v0.003c-12.24,0.014-24.479,0.045-36.719,0.131
	c-6.473,0.046-13.142-0.084-19.372,1.367c-15.028,3.501-24.508,19.229-22.472,35.876c1.599,13.066,16.157,25.527,30.213,25.641
	c28.158,0.229,56.317,0.34,84.475,0.498c1.944,0.012,3.889,0.002,6.064,0.002l0.004-0.223h87.822v-0.099
	c22.747-0.31,45.509-0.316,68.229-1.279C402.837,289.318,414.587,274.732,413.032,255.643z"/>
</svg>
