<?xml version="1.0" encoding="utf-8"?>
<!-- Generator: Adobe Illustrator 16.0.0, SVG Export Plug-In . SVG Version: 6.00 Build 0)  -->
<!DOCTYPE svg PUBLIC "-//W3C//DTD SVG 1.1//EN" "http://www.w3.org/Graphics/SVG/1.1/DTD/svg11.dtd">
<svg version="1.1" id="Layer_1" xmlns="http://www.w3.org/2000/svg" xmlns:xlink="http://www.w3.org/1999/xlink" x="0px" y="0px"
	 width="520px" height="520px" viewBox="0 0 520 520" enable-background="new 0 0 520 520" xml:space="preserve">
<circle fill-rule="evenodd" clip-rule="evenodd" fill="#1E67D3" cx="260" cy="259.999" r="237.244"/>
<path fill="#FFFFFF" d="M284.049,173.242l62.674,62.674c2.64,2.641,2.64,6.949,0,9.588L194.974,397.255l-64.48,7.155
	c-8.616,0.973-15.912-6.323-14.939-14.937l7.157-64.48l151.749-151.751C277.102,170.602,281.408,170.602,284.049,173.242
	L284.049,173.242z M396.611,157.331l-33.908-33.907c-10.561-10.561-27.723-10.561-38.354,0l-24.596,24.597
	c-2.642,2.64-2.642,6.948,0,9.588l62.673,62.673c2.641,2.64,6.947,2.64,9.588,0l24.597-24.597
	C407.173,185.055,407.173,167.892,396.611,157.331z"/>
</svg>
