<?xml version="1.0" encoding="utf-8"?>
<!-- Generator: Adobe Illustrator 16.0.0, SVG Export Plug-In . SVG Version: 6.00 Build 0)  -->
<!DOCTYPE svg PUBLIC "-//W3C//DTD SVG 1.1//EN" "http://www.w3.org/Graphics/SVG/1.1/DTD/svg11.dtd">
<svg version="1.1" id="Layer_1" xmlns="http://www.w3.org/2000/svg" xmlns:xlink="http://www.w3.org/1999/xlink" x="0px" y="0px"
	 width="520px" height="520px" viewBox="0 0 520 520" enable-background="new 0 0 520 520" xml:space="preserve">
<g>
	<path fill="#FFFFFF" d="M69.607,241.167c0-24.753,0-49.507,0-74.26c123.939,0,247.877,0,371.792,0c0-12.641,0-24.802,0-37.255
		c-2.013,0-3.743,0-5.475,0c-120.364,0-240.73,0-361.095-0.011c-1.741,0-3.481-0.156-5.222-0.239c0-18.502,0-37.005,0-55.508
		c125.268,0,250.535,0,375.802,0c0,125.268,0,250.535,0,375.802c-125.268,0-250.535,0-375.802,0c0-19.752,0-39.506,0-59.258
		c1.741-0.084,3.481-0.239,5.222-0.24c120.49-0.011,240.98-0.01,361.47-0.01c1.708,0,3.417,0,5.119,0c0-12.691,0-24.868,0-37.256
		c-124.113,0-247.962,0-371.811,0c0-24.753,0-49.507,0-74.26c1.624-0.031,3.247-0.09,4.87-0.09
		c120.743-0.004,241.485-0.004,362.228-0.004c1.574,0,3.148,0,4.707,0c0-12.699,0-24.874,0-37.318c-1.872,0-3.478,0-5.082,0
		c-120.618,0-241.235,0-361.853-0.004C72.854,241.256,71.23,241.198,69.607,241.167z"/>
	<path fill-rule="evenodd" clip-rule="evenodd" d="M69.607,129.401c1.741,0.083,3.481,0.239,5.222,0.239
		c120.365,0.011,240.73,0.011,361.095,0.011c1.731,0,3.462,0,5.475,0c0,12.453,0,24.615,0,37.255c-123.914,0-247.853,0-371.792,0
		C69.607,154.404,69.607,141.902,69.607,129.401z"/>
	<path fill-rule="evenodd" clip-rule="evenodd" d="M69.607,241.167c1.624,0.031,3.247,0.09,4.871,0.09
		c120.617,0.004,241.234,0.004,361.853,0.004c1.604,0,3.21,0,5.082,0c0,12.444,0,24.619,0,37.318c-1.559,0-3.133,0-4.707,0
		c-120.743,0-241.485,0-362.228,0.004c-1.623,0-3.247,0.059-4.87,0.09C69.607,266.17,69.607,253.668,69.607,241.167z"/>
	<path fill-rule="evenodd" clip-rule="evenodd" d="M69.607,352.932c123.849,0,247.698,0,371.811,0c0,12.388,0,24.564,0,37.256
		c-1.702,0-3.411,0-5.119,0c-120.49,0-240.98-0.001-361.47,0.01c-1.74,0.001-3.481,0.156-5.222,0.24
		C69.607,377.936,69.607,365.434,69.607,352.932z"/>
</g>
</svg>
