<?xml version="1.0" encoding="utf-8"?>
<!-- Generator: Adobe Illustrator 16.0.0, SVG Export Plug-In . SVG Version: 6.00 Build 0)  -->
<!DOCTYPE svg PUBLIC "-//W3C//DTD SVG 1.1//EN" "http://www.w3.org/Graphics/SVG/1.1/DTD/svg11.dtd">
<svg version="1.1" id="Layer_1" xmlns="http://www.w3.org/2000/svg" xmlns:xlink="http://www.w3.org/1999/xlink" x="0px" y="0px"
	 width="1100px" height="300px" viewBox="0 0 1100 300" enable-background="new 0 0 1100 300" xml:space="preserve">
<rect x="41.113" y="9.103" fill="#FFFFFF" width="1007.95" height="242.988"/>
<g>
	<path d="M403.832,84.362h17.7v104.85h-19.2l-59.4-76.5v76.5h-17.7V84.362h17.7l60.9,78.3V84.362z"/>
	<path d="M474.182,165.212c4.8,5.602,11.299,8.4,19.5,8.4c8.198,0,14.7-2.799,19.499-8.4c4.801-5.6,7.201-13.2,7.201-22.8v-58.05
		h17.699v58.8c0,15.101-4.15,26.726-12.449,34.875c-8.303,8.151-18.951,12.225-31.95,12.225c-13.001,0-23.651-4.073-31.95-12.225
		c-8.301-8.149-12.45-19.774-12.45-34.875v-58.8h17.7v58.05C466.981,152.012,469.381,159.613,474.182,165.212z"/>
	<path d="M613.681,173.163c6.098,0,11.348-1.024,15.75-3.075c4.398-2.049,9-5.325,13.8-9.825l11.399,11.7
		c-11.1,12.3-24.576,18.45-40.425,18.45c-15.851,0-29.001-5.101-39.45-15.3c-10.45-10.2-15.675-23.101-15.675-38.7
		c0-15.6,5.325-28.599,15.976-39c10.649-10.399,24.098-15.6,40.35-15.6c16.249,0,29.824,6,40.725,18l-11.25,12.3
		c-5.001-4.8-9.727-8.149-14.175-10.05c-4.45-1.898-9.675-2.85-15.675-2.85c-10.601,0-19.5,3.427-26.7,10.275
		c-7.2,6.851-10.8,15.6-10.8,26.25s3.574,19.551,10.725,26.7C595.403,169.588,603.879,173.163,613.681,173.163z"/>
	<path d="M676.229,189.212V84.362h17.7v88.05h47.85v16.8H676.229z"/>
	<path d="M834.778,84.362v16.65h-55.95v27.75h50.25v15.75h-50.25v28.05h57.75v16.65h-75.45V84.362H834.778z"/>
	<path d="M882.776,165.212c4.801,5.602,11.3,8.4,19.5,8.4c8.199,0,14.7-2.799,19.5-8.4c4.801-5.6,7.2-13.2,7.2-22.8v-58.05h17.7
		v58.8c0,15.101-4.15,26.726-12.45,34.875c-8.302,8.151-18.951,12.225-31.95,12.225c-13,0-23.65-4.073-31.949-12.225
		c-8.302-8.149-12.45-19.774-12.45-34.875v-58.8h17.7v58.05C875.577,152.012,877.977,159.613,882.776,165.212z"/>
	<path d="M1006.15,98.163c-5.152,0-9.375,1.05-12.676,3.15c-3.3,2.1-4.949,5.276-4.949,9.525c0,4.251,1.649,7.5,4.949,9.75
		c3.301,2.25,10.324,4.676,21.075,7.275c10.749,2.602,18.849,6.251,24.3,10.95c5.449,4.702,8.176,11.625,8.176,20.775
		c0,9.15-3.45,16.575-10.351,22.275c-6.899,5.699-15.951,8.55-27.149,8.55c-16.402,0-30.952-5.648-43.65-16.95l11.1-13.35
		c10.599,9.201,21.601,13.8,33,13.8c5.7,0,10.224-1.224,13.575-3.675c3.35-2.449,5.025-5.7,5.025-9.75c0-4.051-1.575-7.2-4.726-9.45
		c-3.149-2.25-8.575-4.299-16.274-6.15c-7.702-1.849-13.552-3.548-17.55-5.1c-4.001-1.549-7.552-3.574-10.65-6.075
		c-6.201-4.699-9.3-11.899-9.3-21.6c0-9.698,3.524-17.175,10.575-22.425c7.05-5.25,15.773-7.875,26.175-7.875
		c6.698,0,13.35,1.102,19.95,3.3c6.6,2.201,12.3,5.302,17.1,9.3l-9.45,13.35c-3.101-2.798-7.301-5.1-12.6-6.9
		C1016.523,99.062,1011.299,98.163,1006.15,98.163z"/>
</g>
<g>
	<path d="M746.645,215.742c1.752,1.464,2.629,3.72,2.629,6.768c0,3.049-0.895,5.28-2.682,6.696
		c-1.789,1.416-4.531,2.124-8.227,2.124h-4.464v7.38h-4.248v-25.164h8.64C742.109,213.545,744.893,214.278,746.645,215.742z
		 M743.639,226.127c0.852-0.9,1.278-2.22,1.278-3.96s-0.54-2.97-1.62-3.69c-1.08-0.72-2.771-1.079-5.076-1.079h-4.319v10.079h4.932
		C741.186,227.477,742.787,227.028,743.639,226.127z"/>
	<path d="M775.336,235.236c-2.543,2.483-5.688,3.726-9.432,3.726s-6.889-1.242-9.432-3.726c-2.544-2.484-3.816-5.58-3.816-9.288
		s1.272-6.805,3.816-9.288c2.543-2.484,5.688-3.727,9.432-3.727s6.889,1.242,9.432,3.727c2.545,2.483,3.816,5.58,3.816,9.288
		S777.881,232.751,775.336,235.236z M772.223,219.486c-1.717-1.776-3.822-2.664-6.318-2.664s-4.602,0.888-6.318,2.664
		c-1.715,1.776-2.573,3.93-2.573,6.462s0.858,4.686,2.573,6.462c1.717,1.776,3.822,2.664,6.318,2.664s4.602-0.888,6.318-2.664
		c1.716-1.776,2.574-3.93,2.574-6.462S773.938,221.262,772.223,219.486z"/>
	<path d="M792.113,231.654l5.615-18.108h3.816l5.616,18.108l6.336-18.108h4.571l-8.783,25.164h-4.213l-5.291-17.244h-0.288
		l-5.292,17.244h-4.213l-8.783-25.164h4.572L792.113,231.654z"/>
	<path d="M839.668,213.545v3.996H826.24v6.66h12.061v3.78H826.24v6.731h13.86v3.996h-18.108v-25.164H839.668z"/>
	<path d="M865.625,221.717c0,4.152-1.812,6.769-5.437,7.849l6.588,9.144h-5.399l-6.013-8.46h-5.579v8.46h-4.248v-25.164h9.359
		c3.84,0,6.588,0.648,8.244,1.944S865.625,218.862,865.625,221.717z M859.973,225.282c0.863-0.744,1.296-1.938,1.296-3.582
		s-0.444-2.772-1.332-3.384c-0.888-0.612-2.472-0.918-4.752-0.918h-5.399v9h5.291C857.477,226.398,859.108,226.026,859.973,225.282z
		"/>
	<path d="M889.42,213.545v3.996h-13.428v6.66h12.061v3.78h-12.061v6.731h13.86v3.996h-18.108v-25.164H889.42z"/>
	<path d="M914.332,216.839c2.424,2.196,3.636,5.251,3.636,9.162c0,3.912-1.177,7.008-3.528,9.288s-5.952,3.42-10.799,3.42h-8.353
		v-25.164h8.64C908.439,213.545,911.908,214.643,914.332,216.839z M913.684,226.11c0-5.761-3.3-8.641-9.9-8.641h-4.247v17.244h4.716
		c3.047,0,5.382-0.726,7.002-2.178S913.684,228.942,913.684,226.11z"/>
	<path d="M944.319,238.709h-11.016v-25.164h9.792c1.704,0,3.174,0.204,4.41,0.612c1.235,0.408,2.153,0.96,2.754,1.655
		c1.151,1.297,1.728,2.761,1.728,4.393c0,1.968-0.624,3.433-1.872,4.392c-0.456,0.337-0.769,0.547-0.936,0.63
		c-0.168,0.085-0.468,0.223-0.9,0.414c1.56,0.337,2.802,1.039,3.727,2.106c0.923,1.068,1.386,2.394,1.386,3.978
		c0,1.753-0.601,3.301-1.8,4.645C950.175,237.93,947.751,238.709,944.319,238.709z M937.552,223.986h5.399
		c3.072,0,4.608-1.044,4.608-3.133c0-1.199-0.372-2.063-1.116-2.592c-0.744-0.527-1.896-0.792-3.456-0.792h-5.436V223.986z
		 M937.552,234.786h6.66c1.56,0,2.754-0.246,3.582-0.738c0.827-0.491,1.241-1.422,1.241-2.79c0-2.231-1.788-3.348-5.363-3.348h-6.12
		V234.786z"/>
	<path d="M967.935,238.709h-4.319v-9.936l-9.36-15.229h4.645l6.876,11.448l6.876-11.448h4.644l-9.36,15.229V238.709z"/>
	<path d="M991.19,217.362v-3.816h12.239v16.596c0,2.929-0.744,5.125-2.231,6.588c-1.488,1.465-3.396,2.196-5.725,2.196
		c-2.928,0-5.424-1.031-7.487-3.096l2.412-3.348c1.632,1.56,3.228,2.34,4.788,2.34c1.104,0,2.045-0.372,2.825-1.116
		s1.17-1.859,1.17-3.348v-12.996H991.19z"/>
	<path d="M1014.446,238.709h-4.248v-25.164h6.624l7.596,15.804l7.596-15.804h6.589v25.164h-4.248v-19.656l-8.784,17.46h-2.376
		l-8.748-17.46V238.709z"/>
</g>
<g id="ITdixO.tif">
	<g>
		<g>
			<path fill="#FEFEFE" d="M155,272c-35.128,0-70.257-0.027-105.386,0.055c-2.652,0.006-3.727-0.117-3.721-3.434
				c0.137-78.414,0.137-156.829,0-235.244c-0.006-3.318,1.074-3.437,3.723-3.431C85.077,30.027,120.539,30,156,30
				c-0.805,3.334-4.017,1.743-5.89,2.896c-2.543,0.457-5.133,0.654-7.631,1.366c-3.417,0.71-6.786,1.623-10.15,2.542
				c-3.699,0.923-7.168,2.492-10.711,3.85c-0.84,0.356-1.679,0.719-2.499,1.122c-2.636,1.197-5.205,2.532-7.778,3.855
				c-1.791,0.79-3.466,1.781-5.048,2.934c-1.666,1.002-3.283,2.078-4.885,3.18c-2.003,1.325-4.047,2.591-5.942,4.075
				c-2.488,2.331-5.473,4.073-7.765,6.628c-1.787,1.691-3.521,3.437-5.226,5.214c-2.399,2.462-5.08,4.664-6.914,7.634
				c-2.231,2.473-4.295,5.074-5.953,7.978c-1.91,2.697-3.778,5.424-5.523,8.231c-0.794,1.319-1.476,2.697-2.127,4.091
				c-0.81,1.602-1.574,3.226-2.335,4.852c-1.498,2.635-2.508,5.479-3.584,8.296c-1.285,3.159-2.351,6.383-3.031,9.73
				c-0.887,3.238-1.596,6.512-2.125,9.827c-0.741,4.281-1.624,8.541-1.536,12.919c-0.821,5.534-1.5,11.069-0.379,16.644
				c0.561,9.621,2.273,19.047,4.819,28.327c1.351,5.573,3.682,10.772,6.15,15.915c1.481,3.157,2.94,6.329,4.778,9.304
				c1.831,3.093,3.547,6.262,5.875,9.034c2.062,3.159,4.699,5.869,6.947,8.88c1.89,2.128,3.965,4.075,5.982,6.08
				c1.653,1.723,3.344,3.409,5.066,5.063c1.724,1.95,4.076,3.146,5.948,4.918c1.733,1.599,3.753,2.792,5.731,4.045
				c1.395,1.02,2.833,1.974,4.287,2.909c2.171,1.497,4.359,2.961,6.799,4.002c2.597,1.402,5.255,2.677,7.926,3.927
				c2.223,1.263,4.698,1.922,7.029,2.927c1.972,0.862,4.048,1.408,6.105,2.018c3.853,1.078,7.725,2.057,11.676,2.706
				c2.239,0.599,4.561,0.729,6.824,1.197C152.379,269.926,154.808,269.387,155,272z"/>
			<path fill-rule="evenodd" clip-rule="evenodd" fill="#FEFEFE" d="M289,165c0,34.5-0.048,69,0.084,103.5
				c0.011,2.983-0.601,3.596-3.585,3.584C250.333,271.953,215.167,272,180,272c0.53-2.966,3.286-2.062,5.035-2.916
				c3.585-0.521,7.16-1.117,10.688-1.953c3.913-0.748,7.676-2.038,11.463-3.229c2.645-1.139,5.297-2.262,8.054-3.106
				c2.866-0.897,5.397-2.52,8.1-3.767c2.25-0.989,4.393-2.167,6.374-3.632c2.644-1.614,5.195-3.371,7.766-5.096
				c2.514-1.407,4.489-3.527,6.815-5.182c2.411-1.59,4.233-3.816,6.258-5.825c4.192-4.021,8.296-8.116,11.511-12.998
				c3.039-3.67,5.943-7.438,8.24-11.636c1.425-2.411,3.062-4.7,4.1-7.33c4.32-8.449,7.685-17.244,9.704-26.533
				c1.146-3.137,1.526-6.431,2.003-9.708C286.855,167.573,286.424,165.218,289,165z"/>
			<path fill-rule="evenodd" clip-rule="evenodd" fill="#FEFEFE" d="M180,30c35.167,0,70.333,0.047,105.5-0.084
				c2.984-0.011,3.596,0.601,3.585,3.585C288.953,68.333,289,103.167,289,138c-1.474,0.247-1.714-0.907-2.13-1.865
				c-2.446-13.903-5.823-27.513-12.726-39.997c-2.418-5.668-6.169-10.507-9.695-15.484c-3.177-4.702-6.699-9.114-10.911-12.945
				c-2.297-2.405-4.646-4.76-7.055-7.052c-1.957-1.722-4.085-3.22-6.186-4.754c-1.996-1.373-4.035-2.683-5.923-4.205
				c-3.122-2.06-5.992-4.534-9.614-5.759c-1.843-0.801-3.39-2.177-5.359-2.733c-1.303-0.448-2.581-0.953-3.789-1.622
				c-2.724-1.813-5.93-2.484-8.891-3.734c-2.001-0.74-4.104-1.135-6.126-1.801c-2.107-0.678-4.265-1.163-6.413-1.687
				c-3.784-0.829-7.6-1.462-11.426-2.06C181.542,31.888,179.884,31.998,180,30z"/>
			<path fill-rule="evenodd" clip-rule="evenodd" fill="#FEAD48" d="M287.838,135.97c0.247,0.757,0.051,1.768,1.162,2.03
				c0,1,0,2,0,3c-0.629,0.667-0.629,1.333,0,2c0,1,0,2,0,3c-1.158,1.847-0.077,3.958-0.689,5.868
				c-0.141,0.085-0.379,0.275-0.413,0.244c-5.864-5.43-15.146-3.315-20.736-9.403c-1.039-1.131-2.648-1.329-4.148-1.543
				c-2.326-0.332-4.898-0.655-6.65-2.003c-6.455-4.966-14.199-3.704-21.407-5.029c-2.619-0.481-4.924,0.273-7.274,1.145
				c-3.321-3.584-5.116-7.795-5.213-12.707c2.394-2.69,5.831-2.939,8.712-2.274c7.402,1.709,14.842,1.236,22.269,1.253
				c4.724,0.01,9.224,0.559,13.573,2.462c5.765,2.523,11.512,5.069,16.985,8.194C285.621,133.129,287.075,134.193,287.838,135.97z"
				/>
			<path fill-rule="evenodd" clip-rule="evenodd" fill="#FEAF47" d="M227.938,135.149c0.668-2.79,2.862-2.861,5.019-2.621
				c5.163,0.574,10.257,2.196,15.527,0.823c0.898-0.234,1.607,0.256,2.194,0.868c3.919,4.08,9.022,5.251,14.352,5.778
				c1.871,0.185,2.845,1.524,4.076,2.598c2.761,2.407,5.681,4.083,9.665,3.681c4.325-0.437,6.526,3.177,9.213,5.725
				c1.117,1.135-0.125,2.87,1.016,4c0,1.667,0,3.333,0,5c-4.81,2.853-8.859,0.722-12.784-1.998
				c-2.688-1.862-4.932-4.495-8.511-4.752c-4.596-0.846-9.166-2.038-13.211-4.289c-7.826-4.355-16.318-5.153-24.954-5.602
				C227.062,141.628,226.224,138.609,227.938,135.149z"/>
			<path fill-rule="evenodd" clip-rule="evenodd" fill="#FE7E55" d="M149.743,31.882c1.707-1.887,4.643,0.313,6.257-1.882
				c1,0,2,0,3,0c0.706,0.744,1.629,0.445,2.477,0.518c0.68-0.001,1.354,0.023,1.956,0.404c0.406,0.302,0.888,0.668,0.915,1.133
				c0.868,15.376,3.052,30.68,2.583,46.127c-0.111,3.641,0.384,7.255,0.267,10.899c-0.051,1.61-0.104,2.973-1.762,3.717
				c-1.742,0.563-3.461,0.592-5.146-0.201c-3.074-4.886-2.284-10.531-2.987-15.86c-1.668-12.658-3.694-25.275-4.655-38.022
				C152.453,36.142,150.55,34.23,149.743,31.882z"/>
			<path fill-rule="evenodd" clip-rule="evenodd" fill="#FE7456" d="M185.093,270.259c-1.341,1.622-3.913-0.352-5.093,1.741
				c-1.667,0-3.333,0-5,0c-2.484-4.207-2.155-9.039-2.293-13.53c-0.38-12.427-1.792-24.783-2.118-37.202
				c-0.078-2.964-0.501-5.974,0.732-8.838c1.006-1.5,2.476-1.521,4.034-1.266c2.035,0.708,3.4,2.096,4.147,4.107
				c1.621,14.654,3.19,29.318,5.848,43.845C186.023,262.791,187.261,266.598,185.093,270.259z"/>
			<path fill-rule="evenodd" clip-rule="evenodd" fill="#FE6A58" d="M155,272c-0.881-1.9-3.265-0.322-4.303-1.859
				c2.531-6.249,3.058-12.931,3.7-19.496c1.197-12.251,3.992-24.302,4.426-36.639c0.029-0.833,0.442-1.595,0.983-2.258
				c1.699-1.136,3.432-1.146,5.195-0.165c3.361,4.915,1.431,10.262,1.097,15.417c-0.694,10.713-1.681,21.403-1.371,32.164
				c0.128,4.454,0.177,8.984-2.727,12.837C159.667,272,157.333,272,155,272z"/>
			<path fill-rule="evenodd" clip-rule="evenodd" fill="#FE7157" d="M171.999,212.159c0.236,17.328,1.523,34.594,2.933,51.857
				c0.216,2.646,0.055,5.322,0.069,7.984c-3.667,0-7.333,0-11,0c2.589-8.876,0.626-17.996,1.427-26.982
				c0.762-8.541-0.274-17.211,1.371-25.691c0.519-2.674-2.326-5.528,0.594-7.947C169.081,210.746,170.684,210.611,171.999,212.159z"
				/>
			<path fill-rule="evenodd" clip-rule="evenodd" fill="#FE8653" d="M177,30c0.667,0,1.333,0,2,0c5.148,5.902,3.051,13,2.591,19.49
				c-0.862,12.155-3.789,24.109-4.15,36.361c-0.072,2.447-0.605,4.965-2.715,6.72c-1.428,0.584-2.784,0.541-4.034-0.451
				c-1.566-2.348-0.375-4.829-0.399-7.266c-0.132-13.292,1.349-26.529,1.283-39.822c-0.022-4.49-2.886-8.623-1.412-13.227
				c0.373-0.802,1-1.235,1.888-1.267c0.749-0.026,1.504-0.023,2.255-0.023C175.219,30.433,176.216,30.774,177,30z"/>
			<path fill-rule="evenodd" clip-rule="evenodd" fill="#FE8952" d="M175,91.898c1.097-9.875,1.431-19.916,3.522-29.576
				c1.783-8.239,1.64-16.477,2.324-24.705c0.206-2.471-1.186-5.074-1.845-7.617c0.333,0,0.667,0,1,0
				c0.583,1.514,2.052,0.73,3.047,1.173c4.127,1.178,3.961,4.665,4.393,7.938c1.218,9.249-1.274,18.08-3.225,26.9
				c-1.573,7.113-2.219,14.374-3.975,21.438c-0.521,2.095-0.704,4.314-3.168,5.192C176.26,92.73,175.541,92.562,175,91.898z"/>
			<path fill-rule="evenodd" clip-rule="evenodd" fill="#FEB247" d="M268,153c2.311-0.125,4.276,0.756,5.816,2.368
				c4.167,4.363,9.117,6.466,15.184,5.632c0,1.333,0,2.667,0,4c-1.831,0.787-0.341,3.078-1.822,4.023
				c-1.351,3.297-1.464,7.031-3.538,10.078c-0.465,0.605-1.045,1.041-1.792,1.236c-1.963-0.134-2.941-1.583-3.475-3.115
				c-2.109-6.058-6.352-10.274-11.461-13.812C263.718,159.569,265.064,156.201,268,153z"/>
			<path fill-rule="evenodd" clip-rule="evenodd" fill="#FE6D58" d="M166.999,212.159c1.123,9.631-0.536,19.238-0.266,28.826
				c0.141,4.987-0.057,10.05-0.277,14.922c-0.239,5.269,2.961,11.521-2.456,16.093c-0.667,0-1.333,0-2,0
				c1.804-13.543,1.095-27.216,2.113-40.788c0.477-6.356,1.827-12.64,0.885-19.055C165.666,211.495,166.333,211.495,166.999,212.159
				z"/>
			<path fill-rule="evenodd" clip-rule="evenodd" fill="#FEBA65" d="M289,156c-1.486-1.042-0.84-2.625-1.016-4
				c0.377-1.994-0.838-4.257,1.016-6C289,149.333,289,152.667,289,156z"/>
			<path fill-rule="evenodd" clip-rule="evenodd" fill="#FEA988" d="M166,30c1.333,0,2.667,0,4,0
				c0.397,0.479,0.374,0.936-0.069,1.374c-1.258,0.734-2.517,0.742-3.777,0.008C165.706,30.967,165.654,30.505,166,30z"/>
			<path fill-rule="evenodd" clip-rule="evenodd" fill="#FDC0A9" d="M163.026,31.103c-0.69-0.078-1.379-0.156-2.069-0.233
				c-0.295-0.208-0.386-0.407-0.275-0.595C160.789,30.092,160.895,30,161,30c1,0,2,0,3,0c0.252,0.218,0.362,0.458,0.331,0.721
				c-0.033,0.273-0.084,0.41-0.154,0.411C163.786,31.417,163.402,31.407,163.026,31.103z"/>
			<path fill-rule="evenodd" clip-rule="evenodd" fill="#FEB79A" d="M170.03,30.913c-0.013-0.304-0.023-0.608-0.03-0.913
				c1,0,2,0,3,0c0.322,0.196,0.433,0.398,0.333,0.606c-0.101,0.21-0.203,0.316-0.308,0.316c-0.675,0.056-1.351,0.111-2.026,0.167
				C170.617,31.354,170.292,31.311,170.03,30.913z"/>
			<path fill-rule="evenodd" clip-rule="evenodd" fill="#FDE0BC" d="M289,143c-1.088-0.667-1.232-1.333,0-2
				C289,141.667,289,142.333,289,143z"/>
			<path fill-rule="evenodd" clip-rule="evenodd" fill="#FED6C6" d="M161,30c0,0.291-0.015,0.581-0.043,0.87
				c-0.821,0.089-1.625,0.142-1.957-0.87C159.667,30,160.333,30,161,30z"/>
			<path fill-rule="evenodd" clip-rule="evenodd" fill="#FDD9C8" d="M177,30c-0.33,1.019-1.152,0.947-1.968,0.889
				c-0.347-0.186-0.467-0.379-0.361-0.581C174.778,30.103,174.887,30,175,30C175.667,30,176.333,30,177,30z"/>
			<path fill-rule="evenodd" clip-rule="evenodd" fill="#FEB195" d="M163.963,30.878c0.02-0.292,0.032-0.585,0.037-0.878
				c0.667,0,1.333,0,2,0c-0.003,0.305-0.01,0.611-0.021,0.916C165.296,31.495,164.622,31.585,163.963,30.878z"/>
			<path fill-rule="evenodd" clip-rule="evenodd" fill="#FDC7AF" d="M175,30c-0.002,0.298,0.008,0.595,0.031,0.891
				c-0.668,0.01-1.337,0.022-2.006,0.033c-0.02-0.309-0.028-0.616-0.025-0.923C173.667,30,174.333,30,175,30z"/>
			<path fill-rule="evenodd" clip-rule="evenodd" fill="#FE3D63" d="M52.832,187.062c-3.145-9.353-5.112-18.907-4.917-28.831
				c-1.053-3.541,1.799-3.325,3.727-3.654c8.037-1.373,16.19-1.164,24.281-1.133c9.297,0.035,18.514-0.845,27.762-1.378
				c1.498-0.086,2.977-0.302,4.338,0.56c2.197,5.119,2.621,10.559,2.876,16.029c-0.56,2.07-2.367,2.609-4.056,3.321
				c-7.518,3.17-15.295,5.728-23.148,7.718c-8.405,2.13-16.064,6.43-24.683,7.803C56.847,187.843,54.801,188.608,52.832,187.062z"/>
			<path fill-rule="evenodd" clip-rule="evenodd" fill="#FE3F62" d="M52.832,187.062c7.553-0.9,14.603-3.412,21.745-5.981
				c11.749-4.226,24.118-6.674,35.453-12.157c3.533,1.558,3.442,4.743,3.53,7.85c-1.211,2.476-3.788,3.081-5.922,4.282
				c-9.558,5.377-19.718,9.488-29.609,14.166c-5.388,2.548-10.828,4.995-16.179,7.624c-0.91,0.447-1.765,0.994-2.724,0.15
				C56.302,197.971,54.259,192.639,52.832,187.062z"/>
			<path fill-rule="evenodd" clip-rule="evenodd" fill="#FE4062" d="M107.845,153.001c-15.393,2.442-30.978,1.488-46.458,2.402
				c-3.379,0.2-6.827,0.654-10.255,0.591c-1.646-0.03-3.021,0.229-3.217,2.237c-1.66-5.767-0.893-11.509,0.183-17.248
				c0.35-0.557,0.698-1.349,1.419-1.206c4.446,0.877,9.039-0.506,13.3,0.237c13.122,2.288,26.41,2.659,39.577,4.276
				c2.188,0.269,4.754-0.027,6.328,2.229C109.471,148.824,109.841,151.074,107.845,153.001z"/>
			<path fill-rule="evenodd" clip-rule="evenodd" fill="#FE4361" d="M107.948,146.001c-5.655-0.798-11.473-1.468-17.024-1.479
				c-5.798-0.011-11.376-2.936-17.214-1.033c-1.031,0.336-2.102,0.027-3.268-0.393c-3.807-1.373-7.61-2.935-11.912-1.462
				c-3.454,1.183-6.907-1.016-10.433-0.652c-0.506-4.504,0.561-8.828,1.511-13.164c5.802-1.122,11.08,1.573,16.575,2.483
				c12.589,2.086,25.092,4.717,37.603,7.267c1.961,0.4,3.965,0.554,5.464,2.107C110.523,142.136,110.252,144.279,107.948,146.001z"
				/>
			<path fill-rule="evenodd" clip-rule="evenodd" fill="#FE585B" d="M74.832,74.644c1.751-3.161,4.358-5.548,7.08-7.831
				c2.167,0.147,3.602,1.559,5.018,2.958c11.305,11.174,22.333,22.63,34.2,33.23c2.064,1.844,4.296,3.76,4.324,6.958
				c-0.709,2.237-1.711,4.184-4.431,4.396c-9.004-6.734-17.446-14.166-26.188-21.228c-5.928-4.789-12.018-9.375-17.558-14.62
				C76.179,77.467,74.205,76.833,74.832,74.644z"/>
			<path fill-rule="evenodd" clip-rule="evenodd" fill="#FE7956" d="M149.743,31.882c3.854,1.872,4.115,5.462,4.4,9.083
				c1.345,17.106,4.931,33.956,5.874,51.109c-0.707,2.649-2.645,1.965-4.446,1.653c-2.349-1.705-3.031-4.4-3.45-6.935
				c-1.97-11.916-5.407-23.514-7.471-35.403c-0.77-4.435-2.906-8.457-3.852-12.852c-0.449-2.088-0.725-3.925,1.199-5.388
				C144.494,32.204,147.071,31.754,149.743,31.882z"/>
			<path fill-rule="evenodd" clip-rule="evenodd" fill="#FE4860" d="M76.906,230.045c-2.713-2.708-5.163-5.62-7.017-8.998
				c0.196-1.263,1.087-2.007,2.05-2.668c15.531-10.666,30.643-21.922,46.112-32.683c3.207,0.289,3.89,2.698,4.416,5.244
				c-0.924,3.562-4.234,4.989-6.654,7.11c-11.495,10.077-23.063,20.071-34.689,29.996C79.913,229.08,78.935,230.698,76.906,230.045z
				"/>
			<path fill-rule="evenodd" clip-rule="evenodd" fill="#FE4660" d="M108.9,140c-12.631-2.069-25.081-5.072-37.712-7.202
				c-7.234-1.22-14.619-2.332-21.581-4.979c0.663-3.315,0.759-6.775,2.498-9.816c1.934-1.381,3.89-0.436,5.739,0.104
				c16.29,4.751,32.561,9.567,48.934,14.027c1.615,0.44,3.203,1.005,3.98,2.721C111.264,136.976,111.325,138.939,108.9,140z"/>
			<path fill-rule="evenodd" clip-rule="evenodd" fill="#FE4560" d="M118.136,185.7c-1.094,3.767-4.829,4.839-7.479,6.759
				c-13.438,9.738-27.151,19.097-40.768,28.588c-2.465-2.69-4.414-5.717-5.906-9.043c3.782-4.056,8.667-6.699,13.327-9.381
				c11.313-6.511,22.889-12.567,33.988-19.462c1.438-0.893,3.018-1.382,4.756-0.995C117.616,182.833,118.91,183.66,118.136,185.7z"
				/>
			<path fill-rule="evenodd" clip-rule="evenodd" fill="#FE4361" d="M116.394,182.867c-6.377,0.813-10.689,5.644-16.03,8.449
				c-12.343,6.484-24.279,13.743-36.38,20.688c-2.166-2.708-3.631-5.794-4.857-9.009c11.197-5.383,22.246-11.042,33.833-15.638
				c6.939-2.752,13.34-6.86,19.983-10.358C115.416,178.177,116.248,180.32,116.394,182.867z"/>
			<path fill-rule="evenodd" clip-rule="evenodd" fill="#FE555C" d="M74.832,74.644c11.17,10.339,23.299,19.512,35.077,29.116
				c3.909,3.187,8.528,5.864,11.191,10.477c0.872,2.758-0.84,3.714-3.022,4.344c-3.115-1.492-6.095-3.281-8.75-5.45
				c-11.228-9.174-23.803-16.335-35.876-24.245c-2.375-1.556-5.073-2.738-4.631-6.303C70.277,79.521,72.367,76.94,74.832,74.644z"/>
			<path fill-rule="evenodd" clip-rule="evenodd" fill="#FE7157" d="M121.004,40.002c3.432-1.972,7.031-3.486,10.989-4.018
				c1.056,0.326,1.622,1.126,1.938,2.107c5.844,18.183,11.908,36.297,17.451,54.576c0.094,0.311,0.047,0.658,0.034,0.993
				c-1.553,2.788-3.918,4.041-7.1,3.736c-1.43-3.574-3.074-7.064-4.375-10.698c0.169-6.344-4.222-11.037-6.235-16.588
				c-1.742-4.803-3.919-9.512-5.574-14.38C126.267,50.242,124.636,44.678,121.004,40.002z"/>
			<path fill-rule="evenodd" clip-rule="evenodd" fill="#FE4960" d="M110.046,135.115c-8.09-2.565-16.138-5.274-24.281-7.661
				c-11.183-3.278-22.437-6.312-33.66-9.451c0.279-3.565,1.735-6.766,3.09-9.998c1.454-1.12,2.862-0.34,4.211,0.188
				c16.16,6.327,32.267,12.789,48.544,18.812c2.336,0.865,3.906,2.441,4.124,5.078C111.919,133.441,111.988,134.954,110.046,135.115
				z"/>
			<path fill-rule="evenodd" clip-rule="evenodd" fill="#FE7456" d="M150.998,93.899c-4.311-10.239-7.086-21-10.671-31.486
				c-2.987-8.738-5.571-17.614-8.334-26.429c3.134-1.655,6.541-2.344,10.004-2.837c-1.551,4.241,0.573,8.146,1.838,11.773
				c3.297,9.448,4.435,19.349,6.983,28.937c1.665,6.264,2.803,12.667,4.178,19.009C154.086,94.845,152.775,95.275,150.998,93.899z"
				/>
			<path fill-rule="evenodd" clip-rule="evenodd" fill="#FE6759" d="M160,211.929c0.507,11.342-2.553,22.304-3.508,33.476
				c-0.578,6.767-2.371,13.357-2.461,20.149c-0.033,2.44-0.486,4.313-3.333,4.587c-2.258-0.24-4.665,0.383-6.698-1.154
				c-1.643-1.924-0.979-4.108-0.539-6.165c2.522-11.788,4.819-23.626,7.744-35.324c0.886-3.543,1.262-7.157,1.915-10.73
				c0.38-2.083,0.518-4.316,2.302-5.875C157.254,209.881,158.742,210.399,160,211.929z"/>
			<path fill-rule="evenodd" clip-rule="evenodd" fill="#FE4C5F" d="M111.047,132.118c-0.172-2.049-1.337-3.287-3.2-3.998
				c-17.552-6.7-35.102-13.409-52.652-20.115c0.947-2.814,1.782-5.678,3.604-8.103c3.208-0.797,5.886,0.977,8.452,2.212
				c15.102,7.271,30.437,14.048,45.454,21.495c0.604,0.3,1.099,0.737,1.516,1.269C114.102,127.703,114.159,130.606,111.047,132.118z
				"/>
			<path fill-rule="evenodd" clip-rule="evenodd" fill="#FE6A58" d="M141,87c0.871,3.354,4.798,5.789,2.997,9.948
				c-0.793,1.956-2.203,2.701-4.263,2.176c-2.719-2.361-4.025-5.687-5.584-8.75c-6.993-13.734-15.186-26.827-21.731-40.796
				c-0.697-1.487-1.684-2.889-1.564-4.655c2.415-1.872,5.088-3.222,8.055-3.977c1.365-0.508,1.731,0.556,2.099,1.426
				C127.363,57.387,134.456,72.071,141,87z"/>
			<path fill-rule="evenodd" clip-rule="evenodd" fill="#FE635A" d="M155.999,211.108c-2.259,5.396-2.031,11.29-3.396,16.891
				c-3.11,12.769-5.729,25.658-8.514,38.505c-0.173,0.797-0.066,1.654-0.089,2.482c-4.225-0.08-8.176-1.256-11.987-2.99
				c2.582-2.173,3.161-5.366,4.115-8.322c3.962-12.276,6.939-24.852,11.249-37.026c1.299-3.671,0.683-7.998,3.787-11.063
				C153.101,209.066,154.73,209.517,155.999,211.108z"/>
			<path fill-rule="evenodd" clip-rule="evenodd" fill="#FE5C5B" d="M124.993,109.753c-1.98-4.167-5.474-7.109-8.828-9.959
				c-10.865-9.232-20.326-19.878-30.59-29.708c-1.182-1.132-2.439-2.185-3.662-3.274c1.328-1.947,3.016-3.529,4.941-4.87
				c3.506-1.11,5.727,0.975,7.504,3.383c7.183,9.732,16.326,17.751,23.606,27.435c3.485,4.636,8.317,8.275,11.609,13.207
				C128.883,108.243,128.144,110.46,124.993,109.753z"/>
			<path fill-rule="evenodd" clip-rule="evenodd" fill="#FE605A" d="M151.052,209.822c-1.119,7.72-3.937,14.99-6.043,22.442
				c-2.814,9.952-6.039,19.788-8.96,29.71c-0.652,2.215-1.095,4.271-4.035,4.022c-2.194-0.075-4.193-0.73-5.98-2.013
				c-0.181-2.948,1.127-5.603,2.264-8.077c2.55-5.548,3.397-11.653,6.377-17.096c2.762-5.043,3.587-10.944,5.76-16.345
				c1.974-4.908,4.386-9.603,6.319-14.518C148.68,207.437,150.361,207.496,151.052,209.822z"/>
			<path fill-rule="evenodd" clip-rule="evenodd" fill="#FE4B5F" d="M76.906,230.045c15.031-12.996,30.061-25.991,45.091-38.986
				c2.84-0.233,3.19,1.738,3.401,3.835c-0.458,1.502-1.605,2.504-2.668,3.544c-12.485,12.206-24.314,25.081-37.418,36.654
				c-0.723,0.639-1.321,1.572-2.522,1.014C80.54,234.366,78.576,232.348,76.906,230.045z"/>
			<path fill-rule="evenodd" clip-rule="evenodd" fill="#FE5F5A" d="M129.042,106.131c-4.481-3.381-8.665-7.667-11.549-11.945
				c-5.571-8.261-13.509-14.178-19.227-22.183c-2.88-4.032-5.619-8.998-11.412-10.061c2.247-2.886,5.267-4.852,8.216-6.903
				c3.384,2.048,5.435,5.42,7.734,8.398c8.487,10.994,16.539,22.321,25.343,33.078c1.953,2.386,4.362,4.714,3.403,8.349
				C130.978,105.812,130.218,106.387,129.042,106.131z"/>
			<path fill-rule="evenodd" clip-rule="evenodd" fill="#FE5C5B" d="M146.996,208.217c-0.293,6.261-4.207,11.305-6.25,16.932
				c-1.562,4.301-2.086,8.975-4.298,13.061c-3.83,7.072-5.333,15.039-8.45,22.392c-0.519,1.224-0.823,2.535-1.965,3.382
				c-2.588-0.392-4.953-1.33-7.071-2.877c-1.239-1.673-0.269-3.19,0.427-4.646c7.287-15.252,13.208-31.13,21.085-46.113
				c0.692-1.316,1.183-2.752,2.444-3.692C144.702,206.067,146.08,206.541,146.996,208.217z"/>
			<path fill-rule="evenodd" clip-rule="evenodd" fill="#FE515D" d="M68.821,82.583c1.121,2.521,3.118,4.007,5.501,5.357
				c10.857,6.152,20.881,13.633,31.376,20.361c4.322,2.771,8.569,6.295,12.591,9.795c0.653,1.971-0.387,2.917-2.09,3.463
				c-8.559-3.289-16.153-8.423-23.968-13.053c-9.691-5.742-19.475-11.354-28.925-17.502C64.799,87.971,66.474,85.057,68.821,82.583z
				"/>
			<path fill-rule="evenodd" clip-rule="evenodd" fill="#FE575C" d="M110.818,257.089c-2.638-0.782-4.888-2.231-6.927-4.041
				c10.506-15.455,19.894-31.606,29.609-47.554c0.692-1.137,1.241-2.352,2.54-2.95c2.125-0.415,3.264,0.949,4.349,2.411
				c0.403,1.003,0.245,1.996-0.273,2.876c-8.773,14.902-15.669,30.818-24.653,45.602
				C114.427,255.139,113.646,257.51,110.818,257.089z"/>
			<path fill-rule="evenodd" clip-rule="evenodd" fill="#FE545C" d="M136.034,202.885c-7.178,14.4-16.631,27.435-24.842,41.216
				c-1.942,3.26-2.685,7.771-7.3,8.948c-1.585-0.5-2.923-1.38-4.033-2.613c-1.894-4.718,2.069-7.526,4.124-10.415
				c5.79-8.139,11.896-16.079,17.697-24.213c3.637-5.099,7.53-9.987,11.222-15.04C134.515,200.632,135.906,200.827,136.034,202.885z
				"/>
			<path fill-rule="evenodd" clip-rule="evenodd" fill="#FE595B" d="M110.818,257.089c3.406-2.157,4.722-5.923,6.489-9.151
				c7.754-14.166,15.16-28.522,22.691-42.81c1.886-0.687,2.547,0.486,3,1.976c-4.667,10.303-9.38,20.585-13.989,30.915
				c-3.419,7.665-6.703,15.39-10.048,23.088C115.958,260.354,113.273,258.955,110.818,257.089z"/>
			<path fill-rule="evenodd" clip-rule="evenodd" fill="#FE4D5F" d="M82.789,236.106c14.12-13.718,28.24-27.437,42.36-41.155
				c1.163-0.231,1.882,0.331,2.369,1.316c0.37,2.564-0.953,4.427-2.574,6.164c-10.042,10.757-20.337,21.283-29.453,32.876
				c-1.984,2.523-3.95,5.292-7.582,5.739C85.893,239.721,84.23,238.028,82.789,236.106z"/>
			<path fill-rule="evenodd" clip-rule="evenodd" fill="#FE635A" d="M130.988,104.675c-0.261-4.961-4.273-7.595-6.905-11.072
				c-7.3-9.642-14.842-19.109-21.865-28.947c-2.325-3.256-6.334-5.272-7.148-9.616c1.736-1.713,3.59-3.259,5.892-4.173
				c7.187,7.906,12.158,17.38,18.354,25.989c4.658,6.472,9.023,13.152,13.455,19.782c1.116,1.67,2.278,3.303,1.993,5.48
				C134.036,103.754,133.422,105.562,130.988,104.675z"/>
			<path fill-rule="evenodd" clip-rule="evenodd" fill="#FE4F5E" d="M87.91,241.046c6.494-5.275,10.991-12.312,16.444-18.506
				c6.298-7.152,13.093-13.869,19.715-20.732c1.558-1.614,2.446-3.501,2.927-5.637c2.426-0.699,3.06,1.057,3.756,2.732
				c-1.394,5.692-6.126,9.168-9.285,13.672c-4.628,6.6-10.187,12.501-14.937,19.056c-3.732,5.15-8.272,9.726-12.566,14.458
				C91.745,244.649,89.52,243.216,87.91,241.046z"/>
			<path fill-rule="evenodd" clip-rule="evenodd" fill="#FE515D" d="M93.964,246.088c1.343-4.268,4.664-7.157,7.394-10.427
				c7.845-9.395,15.541-18.91,22.662-28.861c1.983-2.771,5.668-4.273,6.112-8.169c1.865-0.413,2.945,0.19,2.909,2.243
				c-3.558,8.105-9.766,14.453-14.595,21.713c-3.569,5.366-7.665,10.352-11.118,15.869c-1.518,2.425-3.396,5.351-5.773,7.478
				c-1.38,1.234-1.632,2.812-1.695,4.501C97.592,249.396,95.634,247.938,93.964,246.088z"/>
			<path fill-rule="evenodd" clip-rule="evenodd" fill="#FE6759" d="M110.854,44.923c4.201,5.772,6.624,12.51,10.115,18.679
				c6.583,11.634,12.71,23.527,19.026,35.312c-0.499,1.644-1.365,2.715-3.302,2.123c-4.726-6.79-9.074-13.823-13.073-21.065
				c-4.962-8.988-11.221-17.187-15.944-26.314c-0.955-1.845-2.688-3.489-1.794-5.909C107.324,46.426,108.81,45.183,110.854,44.923z"
				/>
			<path fill-rule="evenodd" clip-rule="evenodd" fill="#FE6659" d="M105.883,47.749c8.965,16.586,19.477,32.25,28.975,48.52
				c0.836,1.432,1.862,2.736,2.139,4.424c-0.455,1.407-1.529,1.767-2.86,1.695c-2.167-6.573-6.772-11.706-10.629-17.193
				c-7.233-10.291-13.52-21.232-21.388-31.085c-0.677-0.848-0.785-2.151-1.157-3.243C102.372,49.465,103.966,48.352,105.883,47.749z
				"/>
			<path fill-rule="evenodd" clip-rule="evenodd" fill="#FE4F5E" d="M63.307,91.004c6.119,0.463,10.542,4.815,15.258,7.728
				c10.937,6.753,22.049,13.164,33.214,19.508c1.574,0.895,3.072,1.923,4.605,2.889c0.031,0.546-0.174,0.98-0.614,1.304
				c-6.722,0.917-11.649-3.36-16.95-6.184c-10.12-5.392-20.586-10.118-30.475-15.959c-2.601-1.537-5.056-3.178-7.204-5.288
				C61.863,93.669,62.585,92.337,63.307,91.004z"/>
			<path fill-rule="evenodd" clip-rule="evenodd" fill="#FE4E5F" d="M61.142,95.002c4.423,0.482,7.789,3.646,11.201,5.724
				c6.553,3.99,13.393,7.362,20.178,10.793c6.755,3.417,12.957,8.04,20.443,9.955c0.955,0.244,1.944,0.352,2.918,0.523
				c0.616,1.698,0.213,2.814-1.74,3.044c-8.958-2.076-16.363-7.641-24.74-11.098c-10.35-4.272-20.225-9.73-30.602-14.042
				C59.093,98.037,60.116,96.519,61.142,95.002z"/>
			<path fill-rule="evenodd" clip-rule="evenodd" fill="#FE6D58" d="M141,87c-2.63-1.755-3.672-4.685-4.869-7.303
				c-5.876-12.855-11.505-25.822-17.222-38.75c0.459-0.846,1.254-0.948,2.095-0.945c3.498,1.777,4.932,4.938,6.099,8.48
				c2.317,7.03,5.004,13.93,7.699,20.827C137.053,75.071,142.057,80.059,141,87z"/>
			<path fill-rule="evenodd" clip-rule="evenodd" fill="#FE7956" d="M185.093,270.259c-1.734-13.032-3.651-26.042-5.112-39.104
				c-0.597-5.341-2.907-10.643-0.98-16.154c3.668-0.394,5.142,2.768,7.451,4.586c0.652,0.758,1.079,1.605,1.041,2.635
				c2.385,10.739,3.602,21.734,7.301,32.186c1.573,4.446,3.724,8.929,1.278,13.786C192.558,269.662,188.84,270.035,185.093,270.259z
				"/>
			<path fill-rule="evenodd" clip-rule="evenodd" fill="#FE7E55" d="M196.071,268.193c0.895-7.671-3.15-14.272-4.859-21.358
				c-1.2-4.974-1.636-10.076-3.061-15.009c-0.588-2.035-0.527-4.265-1.93-6.038c-1.272-1.609-0.464-2.729,0.78-3.789
				c4.627-1.113,7.373,1.479,9.696,4.913c2.222,11.553,7.744,22.034,10.871,33.296c0.426,1.535,1.672,2.961,0.427,4.638
				C204.146,266.411,200.247,267.794,196.071,268.193z"/>
			<path fill-rule="evenodd" clip-rule="evenodd" fill="#FE8254" d="M207.995,264.848c-3.779-10.816-7.525-21.645-11.37-32.438
				c-0.642-1.802-0.583-3.589-0.626-5.41c-0.474-1.746,0.61-2.171,1.99-2.352c2.21,0.779,3.955,2.138,5.168,4.159
				c4.009,9.3,8.811,18.254,12.234,27.81c0.584,1.631,1.937,3.263,0.6,5.153C213.326,262.797,210.661,263.822,207.995,264.848z"/>
			<path fill-rule="evenodd" clip-rule="evenodd" fill="#FE8553" d="M215.992,261.771c-3.733-9.366-6.92-18.966-12.207-27.659
				c-0.917-1.508-1.207-3.398-1.786-5.111c3.491-1.987,6.604-0.477,9.716,1.04c4.209,7.584,6.805,16.007,11.955,23.125
				c1.009,1.395,1.091,3.076,0.301,4.7C221.312,259.167,218.652,260.469,215.992,261.771z"/>
			<path fill-rule="evenodd" clip-rule="evenodd" fill="#FE8C51" d="M238.036,249.074c-2.314,2.112-4.846,3.892-7.771,5.067
				c-3.012,0.239-4.117-2.328-4.875-4.199c-1.712-4.229-4.188-7.787-7.015-11.313c-3.288-4.101-2.615-5.769,2.274-8.254
				c2.352-0.026,4.322,1.158,6.394,2.024C231.412,237.489,235.989,242.448,238.036,249.074z"/>
			<path fill-rule="evenodd" clip-rule="evenodd" fill="#FE8952" d="M221,231c-3.597,1.674-5.03,4.156-1.504,6.992
				c5.009,4.028,5.412,10.787,9.646,15.183c0.341,0.354,0.747,0.645,1.123,0.965c-1.736,1.852-3.998,2.818-6.293,3.726
				c-0.374-4.328-3.757-7.148-5.413-10.828c-2.37-5.269-5.765-10.124-6.559-16.038c2.264-4.239,5.801-2.92,9.223-2.111
				C221.598,229.64,221.617,230.354,221,231z"/>
			<path fill-rule="evenodd" clip-rule="evenodd" fill="#FE9051" d="M238.036,249.074c-3.679-5.358-7.357-10.716-11.036-16.074
				c3.471-2.688,7.266-3.939,11.64-2.632c2.216,3.681,3.518,7.893,6.497,11.153c0.547,0.599,0.456,1.514-0.147,2.22
				C242.853,245.754,240.773,247.842,238.036,249.074z"/>
			<path fill-rule="evenodd" clip-rule="evenodd" fill="#FE974F" d="M262.826,224.996c-3.025,5.133-7.206,9.237-11.667,13.091
				c-4.696-1.619-6.163-3.904-5.72-8.908c2.531-2.805,5.724-4.353,9.426-4.933C257.453,225.16,260.351,222.877,262.826,224.996z"/>
			<path fill-rule="evenodd" clip-rule="evenodd" fill="#FE9250" d="M246,229c-0.517,4.299,2.589,6.54,5.159,9.086
				c-1.767,2.2-3.667,4.256-6.169,5.655c-0.2-2.404-2.447-3.349-3.632-5.054c-1.624-2.335-2.886-4.721-2.358-7.688
				c-0.337-0.524-0.276-0.997,0.18-1.422C241.381,228.547,243.567,227.313,246,229z"/>
			<path fill-rule="evenodd" clip-rule="evenodd" fill="#FE8D3B" d="M281.992,179.998c0.334-0.335,0.669-0.669,1.003-1.004
				c0.79-0.634,1.558-0.579,2.309,0.069c-2.046,9.499-5.059,18.633-10.188,26.967c-1.951,1.529-2.345,5.339-6.126,4.182
				c0.059-4.326,3.688-6.709,5.538-10.06c1.949-3.529,3.932-6.924,2.043-11.106C276.968,185.187,279.347,182.513,281.992,179.998z"
				/>
			<path fill-rule="evenodd" clip-rule="evenodd" fill="#FE8D40" d="M269,210c2.882-0.023,3.704-3.222,6.117-3.969
				c-0.712,2.677-2.26,4.886-3.933,7.025c-0.857,0.7-1.465,1.736-2.659,1.985c-2.608,0.697-4.698,2.424-7.077,3.589
				c-0.404,0.255-0.821,0.475-1.248,0.686c-5.238,2.021-10.155,5.382-16.231,3.868c-0.479-1.79,0.896-2.476,2.07-2.798
				c7.213-1.978,13.719-5.32,19.735-9.717C266.67,210.012,267.767,209.45,269,210z"/>
			<path fill-rule="evenodd" clip-rule="evenodd" fill="#FE984B" d="M267.999,214c1.061-0.315,2.123-0.63,3.184-0.945
				c-2.035,4.505-4.98,8.374-8.357,11.94c-2.609-0.959-5.216,2.567-7.826,0.004c-0.529-2.535,1.534-3.254,3.072-4.272
				c1.476-0.976,3.119-1.7,4.428-2.929C264.375,216.596,266.282,215.436,267.999,214z"/>
			<path fill-rule="evenodd" clip-rule="evenodd" fill="#FE9C44" d="M285.304,179.063c-0.77-0.023-1.539-0.046-2.309-0.069
				c1.267-3.377,2.021-6.969,4.183-9.971C287.116,172.475,286.66,175.853,285.304,179.063z"/>
			<path fill-rule="evenodd" clip-rule="evenodd" fill="#FEAB4B" d="M287.838,135.97c-7.717-4.352-15.453-8.627-23.861-11.602
				c-2.407-0.851-4.701-1.308-7.216-1.407c-8.669-0.344-17.38,0.828-26.031-1.54c-2.047-0.561-5.571-0.309-7.831,1.809
				c-3.522-0.733-4.03-3.581-4.526-6.44c0.447-2.124,1.815-3.847,3.702-4.372c7.792-2.168,14.557-6.756,22.179-9.197
				c3.789-1.213,7.891-0.689,11.838-0.013c3.105,0.532,6.146,1.393,9.241,1.961c4.058,0.745,4.524,0.201,3.889-3.906
				c-0.748-4.837,1.13-6.926,5.629-6.263C282,107.763,286.179,121.467,287.838,135.97z"/>
			<path fill-rule="evenodd" clip-rule="evenodd" fill="#FEA94C" d="M274.85,95c-4.519,1.096-5.918,3.352-4.347,6.825
				c0.527,1.165,3.04,1.833,1.278,3.586c-1.312,1.305-3.167,1.881-5.069,1.514c-3.072-0.594-6.216-1.04-9.156-2.051
				c-7.269-2.5-13.593,0.601-20.374,2.377c-4.906,1.286-7.611,7.034-13.667,5.733c-1.786-0.384-3.507,2.187-4.557,4.146
				c-3.612-1.138-5.452-3.774-6.202-7.335c4.07-3.99,8.912-6.832,14.105-9.013c6.763-2.841,12.81-6.764,18.828-10.924
				c6.013-4.156,12.797-7.113,19.552-9.98C269.196,84.442,272.311,89.539,274.85,95z"/>
			<path fill-rule="evenodd" clip-rule="evenodd" fill="#FEA74D" d="M265.242,79.879c-5.331,5.458-13.251,6.475-19.059,11.064
				c-5.861,4.631-12.302,8.114-19.116,11.142c-4.937,2.193-9.479,5.272-14.197,7.956c-1.61,0.144-2.195-0.73-2.186-2.197
				c4.495-6.947,11.119-11.842,17.487-16.695c7.055-5.377,13.105-11.579,18.99-18.073c2.097-2.315,4.287-4.559,6.933-6.283
				C258.613,70.47,262.08,75.044,265.242,79.879z"/>
			<path fill-rule="evenodd" clip-rule="evenodd" fill="#FE9C4F" d="M224.996,45.139c3.995,0.795,6.943,3.422,10.062,5.749
				c0.217,5.451-3.483,9.148-6.229,13.121c-6.384,9.24-12.846,18.436-19.06,27.782c-2.594,3.902-5.668,6.704-9.638,8.826
				c-1.651-0.1-3.003-0.636-3.507-2.406c1.789-6.699,6.015-12.202,9.163-18.217c5.628-10.755,11.237-21.526,17.006-32.209
				C223.355,46.745,223.936,45.749,224.996,45.139z"/>
			<path fill-rule="evenodd" clip-rule="evenodd" fill="#FE9650" d="M207.002,36.99c3.214,0.844,6.575,1.35,9.049,3.907
				c1.056,4.555-2.011,7.956-3.663,11.567c-4.439,9.702-5.915,20.396-10.583,29.996c-2.475,5.089-5.174,10.01-8.523,14.574
				c-1.776,0.689-2.942-0.163-3.899-1.542c-1.432-6.379,2.593-11.418,4.409-16.938c3.216-9.774,8.007-18.929,8.883-29.581
				C202.989,45.161,202.567,39.851,207.002,36.99z"/>
			<path fill-rule="evenodd" clip-rule="evenodd" fill="#FEA34D" d="M240.995,55.208c2.278,1.242,4.352,2.744,6.016,4.763
				c0.923,1.214,0.803,2.434,0.098,3.713c-6.737,12.217-15.494,22.661-26.912,30.792c-2.577,1.835-4.84,4.025-6.962,6.386
				c-1.898,2.111-3.979,4.075-7.168,3.913c-1.332-0.316-2.215-1.083-2.474-2.471c1.719-5.604,6.655-8.557,10.458-12.376
				c9.268-9.312,17.758-19.184,24.033-30.804C238.871,57.663,239.378,56.034,240.995,55.208z"/>
			<path fill-rule="evenodd" clip-rule="evenodd" fill="#FEA04E" d="M240.995,55.208c-2.624,9.347-9.087,16.559-14.713,23.893
				c-6.516,8.493-15.025,15.458-22.668,23.085c-1.937,0.479-3.412,0.204-3.597-2.191c7.284-4.768,11.049-12.435,15.716-19.312
				c6.648-9.794,14.24-18.987,19.326-29.796C237.037,52.328,239.016,53.768,240.995,55.208z"/>
			<path fill-rule="evenodd" clip-rule="evenodd" fill="#FE8D51" d="M176.84,92.069c3.345-4.455,3.233-9.949,4.001-15.018
				c1.112-7.338,2.591-14.598,4.444-21.729c1.587-6.104,0.518-12.111,0.75-18.146c0.083-2.171-0.874-4.558-2.987-6.003
				c3.965,0.681,7.931,1.362,11.896,2.044c0.906,2.331,0.324,4.632-0.292,6.869c-2.091,7.594-2.157,15.487-3.475,23.157
				c-1.783,10.376-2.84,21.153-9.13,30.248C179.994,94.173,177.915,94.951,176.84,92.069z"/>
			<path fill-rule="evenodd" clip-rule="evenodd" fill="#FEA54D" d="M205.991,104.002c1.722-0.134,3.323-0.796,4.427-2.017
				c7.398-8.177,17.062-13.871,24.291-22.213c5.147-5.94,9.155-12.609,12.302-19.803c2.727,1.894,5.035,4.223,7.082,6.822
				c-0.745,3.794-4.517,5.052-6.615,7.769c-6.962,9.017-16.248,15.619-24.986,22.782c-4.062,3.329-7.749,7.113-11.606,10.691
				C208.286,107.867,206.445,106.776,205.991,104.002z"/>
			<path fill-rule="evenodd" clip-rule="evenodd" fill="#FE9150" d="M207.002,36.99c-1.308,4.774-2.891,9.425-3.212,14.493
				c-0.25,3.938-1.511,7.879-2.766,11.672c-2.492,7.533-6.064,14.661-8.227,22.351c-0.913,3.244-3.473,6.016-2.87,9.746
				c-2.897,1.018-5.454,0.879-7.176-2.104c4.419-5.341,5.383-12.132,6.962-18.45c2.618-10.479,5.968-20.724,8.914-31.093
				c0.804-2.83,0.308-6.038,2.371-8.507C203.163,35.208,205.205,35.712,207.002,36.99z"/>
			<path fill-rule="evenodd" clip-rule="evenodd" fill="#FE8F51" d="M200.998,35.098c0.454,7.683-3.021,14.466-4.985,21.588
				c-2.959,10.729-6.025,21.429-9.111,32.122c-0.603,2.089-1.435,4.16-4.151,4.309l-0.431,0.171L182,92.951
				c3.808-8.851,6.308-18.25,7.607-27.602c1.361-9.791,2.103-19.668,4.411-29.325c0.228-0.955,0.613-1.873,0.924-2.808
				C196.932,33.938,199.199,33.765,200.998,35.098z"/>
			<path fill-rule="evenodd" clip-rule="evenodd" fill="#FE9A4F" d="M224.996,45.139c-4.465,11.667-11.413,22.069-16.988,33.173
				c-3.402,6.775-6.685,13.693-11.287,19.817c-1.264,0.544-1.938-0.014-2.269-1.213c1.954-6.021,6.173-10.92,8.346-16.839
				c4.232-11.532,10.967-21.982,14.611-33.77c0.498-1.611,1.157-3.124,2.589-4.153C222.042,42.515,223.425,43.984,224.996,45.139z"
				/>
			<path fill-rule="evenodd" clip-rule="evenodd" fill="#FE994F" d="M219.998,42.153c-2.352,9.181-7.146,17.335-10.732,25.979
				c-4.19,10.103-9.296,19.633-14.383,29.23c-0.753,0.269-1.399,0.157-1.883-0.531c1.488-5.65,5.428-10.037,7.902-15.212
				c4.298-8.989,5.248-19.025,9.775-27.966c2.039-4.026,4.175-8.26,5.375-12.757C217.367,41.315,218.683,41.734,219.998,42.153z"/>
			<path fill-rule="evenodd" clip-rule="evenodd" fill="#FEFEFE" d="M193,96.832c0.627,0.176,1.255,0.353,1.883,0.53
				c0.613,0.256,1.226,0.512,1.838,0.768c1.098,0.622,2.197,1.244,3.295,1.866c0.989,1.075,2.184,1.813,3.598,2.19
				c0.792,0.606,1.584,1.211,2.377,1.817c1.632,1.344,3.263,2.688,4.895,4.032c0.661,0.669,1.323,1.337,1.984,2.006
				c2.029,2.363,4.058,4.727,6.087,7.09c1.12,2.159,2.17,4.361,3.941,6.099c1.68,3.973,3.36,7.945,5.04,11.918
				c0.374,3.07,0.793,6.13,1.945,9.032c2.347,2.487,1.35,5.573,1.524,8.448c0.012,2.238,0.077,4.482-0.363,6.695
				c-0.705,2.224-0.848,4.583-1.559,6.807c-0.364,2.212-1.365,4.206-2.152,6.274c-1.259,3.683-3.73,6.665-5.725,9.926
				c-5.68,6.59-12.084,12.246-20.233,15.642c-2.69,1.03-5.6,1.492-8.205,3.042c0.657,2.016,3.642,2.565,3.083,5.167
				c-1.4,2.314-3.932,2.685-6.147,3.607c-1.611,0.522-3.226,1.036-4.871,1.445c-1.648,0.391-3.286,0.835-4.968,1.071
				c-1.431,0.176-2.885,0.698-4.255-0.231c-1.339,0.028-2.677,0.056-4.016,0.084c-1.667,0-3.333,0-5,0
				c-0.667-0.001-1.333-0.001-2-0.002c-1.666-0.076-3.332-0.151-4.998-0.228c-1.334-0.273-2.668-0.547-4.002-0.821
				c-1.649-0.429-3.298-0.857-4.947-1.286c-1.352-0.535-2.704-1.07-4.056-1.605c-1.328-0.39-2.413-1.649-3.998-1.114
				c-1-0.659-2-1.317-3-1.976c-1.83,0.151-2.291-2.117-3.964-2.243c-0.998-0.67-1.996-1.341-2.994-2.012
				c-0.664-1.145-1.731-1.765-2.909-2.243c-0.901-1.004-1.655-2.195-3.135-2.46c-0.616-0.406-1.231-0.813-1.847-1.219
				c-1.147-1.22-1.069-3.431-3.152-3.893c-1.216-1.837-1.92-4.044-3.861-5.359c-0.581-0.944-1.162-1.888-1.743-2.832
				c-1.15-1.957-2.301-3.913-3.452-5.869c-0.321-2.926-1.644-5.491-2.912-8.075c-0.744-5.306-2.167-10.518-2.185-15.923
				c0.035-2.333,0.069-4.667,0.104-7c0.716-1.938,1.206-3.911,0.952-6.001c0.863-1.516,1.241-3.145,1.146-4.885
				c1.014-0.772,0.992-1.89,1.001-2.997c1.031-2.358,2.063-4.717,3.094-7.075c0.58-1.015,1.16-2.03,1.74-3.044
				c0.167-0.29,0.334-0.579,0.502-0.869c0.636-1.011,1.271-2.022,1.906-3.033c1.288-1.031,2.268-2.287,2.811-3.86
				c1.897-0.973,2.473-3.094,3.892-4.483c1.792-0.713,2.922-2.166,4.049-3.622c0.649-0.485,1.298-0.971,1.947-1.457
				c1.049-0.763,2.098-1.525,3.147-2.288c0.954-0.564,1.907-1.129,2.86-1.694c1-0.593,2-1.186,3-1.779
				c1.333-0.655,2.667-1.311,4.001-1.966c2.577-0.458,4.82-1.682,7.001-3.049c1.562,0.543,2.787-0.221,3.999-1.033
				c1.744,0.183,3.509,0.501,5.02-0.792c2.003-0.078,4.006-0.155,6.009-0.233c1.658-0.826,3.317-1.319,4.975,0.002
				c1.333,0.019,2.667,0.038,4,0.057c0.614,0.057,1.228,0.113,1.841,0.17c1.562,1.219,3.388,0.891,5.16,0.882
				c0.222,0.185,0.473,0.24,0.751,0.164c2.392,0.712,4.784,1.423,7.176,2.135C190.951,95.778,191.976,96.305,193,96.832z"/>
			<path fill-rule="evenodd" clip-rule="evenodd" fill="#FEB145" d="M230.163,153c-0.093-2.94-0.186-5.88-0.279-8.819
				c6.729-1.505,13.305-0.717,19.484,2.076c6.056,2.737,12.097,5.387,18.631,6.744c-0.11,3.333-4.058,6.667,0,10
				c-2.368,1.955-4.679,0.991-6.923-0.213c-1.604-0.861-2.993-2.09-4.662-2.855c-6.856-3.214-14.35-3.916-21.623-5.471
				C233.188,154.118,231.454,154.298,230.163,153z"/>
			<path fill-rule="evenodd" clip-rule="evenodd" fill="#FE8354" d="M171,91.842c-1.658,0-3.316-0.001-4.975-0.001
				c0.304-10.247,0.416-20.651-0.586-30.685c-0.761-7.62,1.582-16.019-3.236-23.215c-1.506-2.25,3.036-4.229,0.822-6.839
				c0.311-0.083,0.623-0.157,0.938-0.222c0.672,0.012,1.344,0.025,2.016,0.037c1.35-0.001,2.7-0.002,4.051-0.003
				c0.324,0.048,0.647,0.107,0.969,0.174c1.071,8.319,2.627,16.573,2.037,25.055C172.208,68.032,171.665,79.941,171,91.842z"/>
			<path fill-rule="evenodd" clip-rule="evenodd" fill="#FE7851" d="M176.015,212.075c1.347-0.295,2.693-0.59,4.041-0.885
				c4.128,2.032,8.771,3.371,10.904,8.095c-1.528,1.104-3.181,1.347-4.959,0.716c-2.333-1.667-4.666-3.333-6.999-4.999
				C177.67,214.368,176.694,213.372,176.015,212.075z"/>
			<path fill-rule="evenodd" clip-rule="evenodd" fill="#FEB545" d="M257,159c3.717,1.194,6.398,5.238,11,4
				c5.503,3.097,9.335,7.557,11.337,13.603c0.452,1.363,1.095,2.794,2.654,3.396c-0.743,3.511-3.821,5.728-4.989,9.002
				c-0.201,1.896-0.787,3.402-3.148,3.112c-4.713-9.343-9.599-18.546-18.959-24.282c-1.127-0.69-2.02-1.736-2.531-3.026
				C251.811,161.194,254.587,160.242,257,159z"/>
			<path fill-rule="evenodd" clip-rule="evenodd" fill="#FE7E50" d="M186,220c1.542-0.95,3.244-1.108,4.998-1
				c5.658-0.069,11.026,0.744,15.266,5.002c-2.438,2.929-5.274,2.593-8.264,0.999c-0.954,0.379-1.62,1.046-2,1.999
				c-2.458-2.641-5.574-4.099-8.999-5C186.667,221.333,186.333,220.667,186,220z"/>
			<path fill-rule="evenodd" clip-rule="evenodd" fill="#FE844F" d="M198,225.001c2.713,0.045,5.495,0.636,7.998-0.998
				c4.191-1.101,8.382-0.22,12.574-0.017c2.697,1.68,6.752,0.403,8.61,3.928c-1.828,1.687-3.918,1.886-6.184,1.086
				c-2.954,0.874-6.409-0.511-8.999,1.999c-3.233-1.166-6.567-1.832-10-2C200.667,227.667,199.333,226.334,198,225.001z"/>
			<path fill-rule="evenodd" clip-rule="evenodd" fill="#FE8D4E" d="M220.998,229.001c1.857-1.193,3.942-1.022,6.002-1
				c1.131-2.111,2.731-1.167,4.267-0.668c2.111,2.231,5.95-0.514,7.733,2.667c0,0.333,0,0.667,0,1c-4.242-0.787-7.937,1.71-12,2
				c-2.309,0.26-4.063-1.144-6-2C221,230.334,220.999,229.667,220.998,229.001z"/>
			<path fill-rule="evenodd" clip-rule="evenodd" fill="#FE904B" d="M239,230c-2.428-1.621-6.006,1.364-7.999-1.998
				c1.108-2.551,3.518-2.04,5.577-2.391c8.48-1.443,17.005-2.753,24.422-7.611l0.001,0c0.667-0.555,1.333-0.579,1.999,0.002
				c-1.517,3.647-6.485,3.347-8,6.997c-3,1.333-6,2.667-9,4C243.667,229.334,241.333,229.667,239,230z"/>
			<path fill-rule="evenodd" clip-rule="evenodd" fill="#FE8334" d="M273.999,191.994c1.001-0.998,2.002-1.996,3.003-2.994
				c4.047,3.269,1.251,6.716-0.254,9.578c-2.128,4.046-5.124,7.636-7.749,11.421c-7.053,4.731-13.924,9.804-22.581,11.397
				c-0.875,0.161-1.616,1.049-2.419,1.601c-4.104,3.715-9.425,2.252-14.16,3.101c-2.963,0.531-6.248,0.06-9.322-0.661
				c-0.611-0.234-0.874-0.678-0.788-1.327c1.898-2.271,4.577-2.406,7.187-2.398c3.473,0.011,6.857-0.367,10.162-1.396
				c8.616-1.914,16.846-4.733,24.23-9.788c4.044-2.768,7.292-6.209,10.06-10.18c1.291-1.854,1.877-3.86,1.283-6.113
				C272.567,193.168,272.964,192.389,273.999,191.994z"/>
			<path fill-rule="evenodd" clip-rule="evenodd" fill="#FE8C44" d="M220.009,225.001c8.087,0.416,16.045-0.72,23.991-2.004
				c6.058-0.334,11.379-3.176,17-4.996c-7.089,6.127-15.977,7.355-24.698,8.939c-1.776,0.322-3.658,0.053-5.301,1.062
				c-1.333-0.042-2.667-0.973-4.001-0.001c-2.325-1.921-5.866-0.589-8.009-2.994C219.328,224.647,219.667,224.645,220.009,225.001z"
				/>
			<path fill-rule="evenodd" clip-rule="evenodd" fill="#FE8C44" d="M263,218.003c-0.666,0-1.333-0.001-1.999-0.002
				c2.143-1.666,4.325-3.261,6.998-4C267.015,216.187,264.97,217.049,263,218.003z"/>
			<path fill-rule="evenodd" clip-rule="evenodd" fill="#FEBF3E" d="M201.001,197.077c7.68-3.623,14.015-8.991,19.718-15.181
				c6.951-2.428,13.13,0.087,18.703,3.692c8.644,5.592,11.775,18.698,6.773,26.087c-6.03,2.902-12.464,3.772-19.072,3.764
				c-9.421-0.341-18.628-1.526-26.753-6.913C197.69,204.552,198.499,200.767,201.001,197.077z"/>
			<path fill-rule="evenodd" clip-rule="evenodd" fill="#FEBD3F" d="M245.998,210.887c5.528-11.724-4.626-26.776-16.013-27.875
				c-3.095-0.299-6.177-0.74-9.265-1.115c1.877-3.296,3.756-6.592,5.634-9.888c1.432-1.334,3.084-0.88,4.734-0.617
				c14.906,2.379,26.767,14.416,28.881,29.319c0.189,1.334,0.253,2.654-0.2,3.954c-0.521,1.268-1.44,2.2-2.524,2.993
				C253.586,209.039,250.478,212.361,245.998,210.887z"/>
			<path fill-rule="evenodd" clip-rule="evenodd" fill="#FEB843" d="M273.999,191.994c-0.348,0.661-0.696,1.323-1.043,1.984
				c-0.894,2.643-2.792,4.319-5.253,5.46c-0.499,0.001-0.968-0.113-1.408-0.352c-1.475-0.994-1.979-2.52-2.489-4.142
				c-4.675-14.885-14.55-23.996-30.014-26.842c-1.943-0.357-3.968-0.529-5.445-2.105c0.976-1.948,0.079-4.372,1.567-6.19
				c5.52,0.164,10.583,2.811,16.177,2.849c2.373,0.016,4.946,0.569,6.909,2.344c9.358,4.552,14.047,13.448,19.777,21.354
				C273.94,187.959,273.915,190.041,273.999,191.994z"/>
			<path fill-rule="evenodd" clip-rule="evenodd" fill="#FEBB41" d="M228.346,165.997c16.174,0.771,27.4,9.034,35.016,22.933
				c1.756,3.206,0.926,7.271,3.64,10.079c-1.373,3.724-4.019,5.722-8.005,5.901c-1.621-18.95-12.648-30.576-32.645-32.902
				C227.017,170.004,227.682,168.001,228.346,165.997z"/>
			<path fill-rule="evenodd" clip-rule="evenodd" fill="#FEB444" d="M253,165c-4.952-1.969-10.857,0.708-15.497-3.257
				c-0.7-0.598-2.537,0.196-3.852,0.241c-1.669,0.058-3.473,0.231-3.737-2.176c0.083-2.27,0.166-4.539,0.249-6.808
				c9.309,0.377,18.36,1.905,26.837,6C256.817,161.767,252.344,161.674,253,165z"/>
			<path fill-rule="evenodd" clip-rule="evenodd" fill="#FE7437" d="M238.003,221c-5.593,3.452-12.173,0.967-18.003,2.997
				c-2.577,1.305-5.208,0.279-7.715-0.085c-8.369-1.216-16.138-4.309-23.433-8.516c-1.91-1.102-4.099-2.361-3.809-5.231
				c1.626-0.436,3.252-0.872,4.878-1.308c5.313,2.112,10.266,5.104,15.882,6.485c6.592,2.634,13.62,2.864,20.53,3.747
				C230.088,220.564,234.459,218.276,238.003,221z"/>
			<path fill-rule="evenodd" clip-rule="evenodd" fill="#FE6425" d="M205.005,216.001c-5.675-1.015-10.917-2.946-15.083-7.145
				c2.017-0.98,4.033-1.961,6.049-2.942c2.588-1.558,3.297,1.485,5.018,2.051c8.179,4.064,16.866,5.968,25.967,6.119
				c-0.698,3.123-5.376,1.28-5.856,4.693C215.716,217.932,210.146,218.207,205.005,216.001z"/>
			<path fill-rule="evenodd" clip-rule="evenodd" fill="#FE7649" d="M185.043,210.164c7.099,7.978,16.913,10.37,26.669,12.697
				c2.667,0.637,5.412,1.63,8.288,1.136c0.003,0.334,0.005,0.669,0.008,1.004c-0.339,0.002-0.678,0.004-1.018,0.006
				c-4.346-0.138-8.753,0.509-12.993-1.004c-4.626-2.79-10.167-2.838-15-5.004c-3.746-2.466-7.69-4.654-10.942-7.81
				C181.718,210.847,183.381,210.505,185.043,210.164z"/>
			<path fill-rule="evenodd" clip-rule="evenodd" fill="#FEBE40" d="M200.989,207.965c-1.673-0.684-3.346-1.367-5.018-2.05
				c-0.959-2.691-4.282-2.708-6.091-5.372c3.906-1.217,7.514-2.342,11.121-3.467C201.269,200.706,198.562,204.333,200.989,207.965z"
				/>
			<path fill-rule="evenodd" clip-rule="evenodd" fill="#FE792E" d="M238.003,221c-3.985-0.508-8.145,1.082-12-0.996
				c2.308-2,5.209-1.858,7.981-2.311c11.282-1.844,22.251-4.481,30.385-13.437c1.435-1.581,3.085-3.063,3.585-5.298
				c1.345-1.984,3.006-3.65,5.002-4.98c3.408,2.168,1.071,4.708-0.086,6.454c-7.155,10.791-17.769,16.496-30.014,19.591
				C241.258,220.427,239.622,220.678,238.003,221z"/>
			<path fill-rule="evenodd" clip-rule="evenodd" fill="#FE6623" d="M222,217.998c-0.4-1.229-3.122-3.151,0.958-3.024
				c1.369,0.042,2.902,0.447,3.998-0.89c6.544,0.111,12.831-1.314,19.042-3.196c3.619-1.335,7.237-2.669,10.856-4.003
				c2.873,1.662,0.22,2.613-0.644,3.266c-2.915,2.201-6.296,3.595-9.707,4.874c-6.867,2.575-14.141,2.973-21.307,3.922
				C224.064,219.097,222.858,219.008,222,217.998z"/>
			<path fill-rule="evenodd" clip-rule="evenodd" fill="#FE6B24" d="M222,217.998c11.737-0.836,23.421-1.878,33.559-8.8
				c0.789-0.539,2.614-0.564,1.295-2.312c0.713-0.659,1.428-1.316,2.143-1.975c2.668-1.968,5.337-3.935,8.005-5.902
				c0.318-0.008,0.635-0.025,0.952-0.051c1.907,2.597-0.64,3.785-1.774,5.321c-5.304,7.183-13.344,9.881-21.292,12.531
				c-6.09,2.03-12.533,2.453-18.885,3.193c-7.229-0.126-14.396-0.578-20.997-4.002C210.67,216.667,216.335,217.332,222,217.998z"/>
		</g>
	</g>
</g>
</svg>
